<svg width="24" height="30" viewBox="0 0 24 30" fill="none" xmlns="http://www.w3.org/2000/svg">
<g filter="url(#filter0_d_1170_705)">
<path d="M5 7H8V6C8 4.93913 8.42143 3.92172 9.17157 3.17157C9.92172 2.42143 10.9391 2 12 2C13.0609 2 14.0783 2.42143 14.8284 3.17157C15.5786 3.92172 16 4.93913 16 6V7H19C19.2652 7 19.5196 7.10536 19.7071 7.29289C19.8946 7.48043 20 7.73478 20 8V19C20 19.7956 19.6839 20.5587 19.1213 21.1213C18.5587 21.6839 17.7956 22 17 22H7C6.20435 22 5.44129 21.6839 4.87868 21.1213C4.31607 20.5587 4 19.7956 4 19V8C4 7.73478 4.10536 7.48043 4.29289 7.29289C4.48043 7.10536 4.73478 7 5 7ZM14 6C14 5.46957 13.7893 4.96086 13.4142 4.58579C13.0391 4.21071 12.5304 4 12 4C11.4696 4 10.9609 4.21071 10.5858 4.58579C10.2107 4.96086 10 5.46957 10 6V7H14V6ZM6 19C6 19.2652 6.10536 19.5196 6.29289 19.7071C6.48043 19.8946 6.73478 20 7 20H17C17.2652 20 17.5196 19.8946 17.7071 19.7071C17.8946 19.5196 18 19.2652 18 19V9H16V10C16 10.2652 15.8946 10.5196 15.7071 10.7071C15.5196 10.8946 15.2652 11 15 11C14.7348 11 14.4804 10.8946 14.2929 10.7071C14.1054 10.5196 14 10.2652 14 10V9H10V10C10 10.2652 9.89464 10.5196 9.70711 10.7071C9.51957 10.8946 9.26522 11 9 11C8.73478 11 8.48043 10.8946 8.29289 10.7071C8.10536 10.5196 8 10.2652 8 10V9H6V19Z" fill="#4F4F4F"/>
</g>
<defs>
<filter id="filter0_d_1170_705" x="-4" y="0" width="32" height="32" filterUnits="userSpaceOnUse" color-interpolation-filters="sRGB">
<feFlood flood-opacity="0" result="BackgroundImageFix"/>
<feColorMatrix in="SourceAlpha" type="matrix" values="0 0 0 0 0 0 0 0 0 0 0 0 0 0 0 0 0 0 127 0" result="hardAlpha"/>
<feOffset dy="4"/>
<feGaussianBlur stdDeviation="2"/>
<feComposite in2="hardAlpha" operator="out"/>
<feColorMatrix type="matrix" values="0 0 0 0 0 0 0 0 0 0 0 0 0 0 0 0 0 0 0.25 0"/>
<feBlend mode="normal" in2="BackgroundImageFix" result="effect1_dropShadow_1170_705"/>
<feBlend mode="normal" in="SourceGraphic" in2="effect1_dropShadow_1170_705" result="shape"/>
</filter>
</defs>
</svg>
